<svg xmlns="http://www.w3.org/2000/svg" viewBox="0 0 330 150" role="img" aria-labelledby="title desc">
  <title id="title">Universidad Autonoma de Aguascalientes</title>
  <desc id="desc">Logo institucional de la Universidad Autonoma de Aguascalientes usado como referencia visual para el prototipo.</desc>
  <rect width="330" height="150" fill="#ffffff"/>
  <g transform="translate(105 18)">
    <path d="M10 0v52c0 26 15 39 38 39h5V74h-5c-13 0-20-8-20-23V0z" fill="#06185f"/>
    <path d="M28 0v52c0 15 7 23 20 23h8V0H39v58c-7-3-10-9-10-18V0z" fill="#a8aecf"/>
    <path d="M71 2h21c27 0 42 16 42 45v42h-17V48c0-19-9-29-27-29H71z" fill="#06185f"/>
    <path d="M83 20c16 2 25 12 25 29v40H91V50c0-8-3-14-8-17z" fill="#a8aecf"/>
    <path d="M75 31c10 11 12 21 4 31L63 82c-2-17 2-31 12-51z" fill="#f3a51b"/>
    <path d="M84 43c9 12 8 23-2 34L68 92c-3-17 2-33 16-49z" fill="#e3362d"/>
  </g>
  <g fill="#06185f" font-family="Arial, Helvetica, sans-serif" font-weight="700" text-anchor="middle">
    <text x="165" y="118" font-size="18" letter-spacing="-0.4">UNIVERSIDAD AUTONOMA</text>
    <text x="165" y="138" font-size="18" letter-spacing="-0.4">DE AGUASCALIENTES</text>
  </g>
</svg>
